<svg xmlns="http://www.w3.org/2000/svg" version="1.1" xmlns:xlink="http://www.w3.org/1999/xlink" xmlns:svgjs="http://svgjs.dev/svgjs" width="1000" height="1000" viewBox="0 0 1000 1000"><rect width="1000" height="1000" fill="#0093fb"></rect><g transform="matrix(0.7,0,0,0.7,149.57575757575756,282.1265587044535)"><svg viewBox="0 0 396 247" data-background-color="#0093fb" preserveAspectRatio="xMidYMid meet" height="623" width="1000" xmlns="http://www.w3.org/2000/svg" xmlns:xlink="http://www.w3.org/1999/xlink"><g id="tight-bounds" transform="matrix(1,0,0,1,0.2400000000000091,-0.09999999999999432)"><svg viewBox="0 0 395.52 247.2" height="247.2" width="395.52"><g><svg></svg></g><g><svg viewBox="0 0 395.52 247.2" height="247.2" width="395.52"><g><path d="M55.039 247.2l26.403-45.732h2.365l-25.157 43.572h278.219l-25.156-43.572 2.365 0 26.403 45.732zM197.76 0l26.403 45.732-2.364 0-24.039-41.637-24.039 41.637-2.364 0z" fill="#ffffff" fill-rule="nonzero" stroke="none" stroke-width="1" stroke-linecap="butt" stroke-linejoin="miter" stroke-miterlimit="10" stroke-dasharray="" stroke-dashoffset="0" font-family="none" font-weight="none" font-size="none" text-anchor="none" style="mix-blend-mode: normal" data-fill-palette-color="tertiary"></path></g><g transform="matrix(1,0,0,1,65.71942886718085,67.97999999999999)"><svg viewBox="0 0 264.0811422656383 111.24" height="111.24" width="264.0811422656383"><g><svg viewBox="0 0 265.4015479769664 111.79619999999998" height="111.24" width="264.0811422656383"><g><rect width="3.1432779065663996" height="111.79619999999998" x="102.1130338752" y="0" fill="#ffffff" opacity="1" stroke-width="0" stroke="transparent" fill-opacity="1" class="rect-r$-0" data-fill-palette-color="primary" rx="1%" id="r$-0" data-palette-color="#ffffff"></rect></g><g transform="matrix(1,0,0,1,113.4847879769664,0.2780999999999949)"><svg viewBox="0 0 151.91676 111.24" height="111.24" width="151.91676"><g id="textblocktransform"><svg viewBox="0 0 151.91676 111.24" height="111.24" width="151.91676" id="textblock"><g><svg viewBox="0 0 151.91676 111.24" height="111.24" width="151.91676"><g transform="matrix(1,0,0,1,0,0)"><svg width="151.91676" viewBox="0.6500000000000004 -35.9 206.59999999999997 136.4" height="111.24" data-palette-color="#ffffff"><svg></svg><svg></svg><svg></svg><g class="wordmark-text-0" data-fill-palette-color="primary" id="text-0"><path d="M13.8-31.75v0c-5 0-7.5 1.883-7.5 5.65v0c0 2.1 0.577 3.54 1.73 4.32 1.147 0.787 3.48 1.57 7 2.35 3.513 0.787 6.003 1.803 7.47 3.05 1.467 1.253 2.2 3.313 2.2 6.18v0c0 7.1-3.683 10.65-11.05 10.65v0c-2.433 0-5.483-0.283-9.15-0.85v0l-1.8-0.25 0.4-3.2c4.533 0.6 7.983 0.9 10.35 0.9v0c4.933 0 7.4-2.317 7.4-6.95v0c0-1.867-0.54-3.21-1.62-4.03-1.087-0.813-3.113-1.503-6.08-2.07v0c-3.9-0.833-6.667-1.91-8.3-3.23-1.633-1.313-2.45-3.52-2.45-6.62v0c0-6.2 3.717-9.3 11.15-9.3v0c2.433 0 5.35 0.25 8.75 0.75v0l1.7 0.25-0.35 3.25c-4.633-0.567-7.917-0.85-9.85-0.85zM34.45-20.65v20.65h-3.75v-35.9h3.75v12.3c2.667-1.267 5.233-1.9 7.7-1.9v0c3.333 0 5.577 0.9 6.73 2.7 1.147 1.8 1.72 5 1.72 9.6v0 13.2h-3.75v-13.1c0-3.467-0.34-5.843-1.02-7.13-0.687-1.28-2.13-1.92-4.33-1.92v0c-2.1 0-4.133 0.383-6.1 1.15v0zM56.45-12.55c0-4.567 0.817-7.867 2.45-9.9 1.633-2.033 4.393-3.05 8.28-3.05 3.88 0 6.63 1.017 8.25 3.05 1.613 2.033 2.42 5.333 2.42 9.9 0 4.567-0.767 7.883-2.3 9.95-1.533 2.067-4.333 3.1-8.4 3.1-4.067 0-6.867-1.033-8.4-3.1-1.533-2.067-2.3-5.383-2.3-9.95zM60.3-12.63c0 3.653 0.443 6.213 1.33 7.68 0.88 1.467 2.73 2.2 5.55 2.2 2.813 0 4.653-0.727 5.52-2.18 0.867-1.447 1.3-4.003 1.3-7.67 0-3.667-0.483-6.193-1.45-7.58-0.967-1.38-2.757-2.07-5.37-2.07-2.62 0-4.42 0.69-5.4 2.07-0.987 1.387-1.48 3.903-1.48 7.55zM87.7 11.1h-3.75v-36.1h3.7v1.8c2.533-1.533 5.033-2.3 7.5-2.3v0c3.167 0 5.467 1.007 6.9 3.02 1.433 2.02 2.15 5.347 2.15 9.98 0 4.633-0.84 7.957-2.52 9.97-1.687 2.02-4.48 3.03-8.38 3.03v0c-2.033 0-3.9-0.183-5.6-0.55v0zM94.6-22.15v0c-1 0-2.073 0.167-3.22 0.5-1.153 0.333-2.063 0.667-2.73 1v0l-0.95 0.5v16.85c2.367 0.367 4.167 0.55 5.4 0.55v0c2.7 0 4.593-0.767 5.68-2.3 1.08-1.533 1.62-4.033 1.62-7.5 0-3.467-0.49-5.933-1.47-7.4-0.987-1.467-2.43-2.2-4.33-2.2zM114.3 0l-7.05-34.6h4l5.9 31.2h1.45l7.05-30.9h4.5l7.05 30.9h1.45l5.9-31.2h3.95l-7 34.6h-7.05l-6.55-29.55-6.55 29.55zM157.4 0h-3.75v-25h3.75zM157.4-30.65h-3.75v-4.35h3.75zM172.45-22.15v0c-3.633 0-5.45 1.267-5.45 3.8v0c0 1.167 0.417 1.99 1.25 2.47 0.833 0.487 2.733 0.987 5.7 1.5 2.967 0.52 5.067 1.247 6.3 2.18 1.233 0.933 1.85 2.683 1.85 5.25 0 2.567-0.823 4.45-2.47 5.65-1.653 1.2-4.063 1.8-7.23 1.8v0c-2.067 0-4.5-0.233-7.3-0.7v0l-1.5-0.25 0.2-3.25c3.8 0.567 6.667 0.85 8.6 0.85 1.933 0 3.407-0.31 4.42-0.93 1.02-0.613 1.53-1.647 1.53-3.1 0-1.447-0.433-2.43-1.3-2.95-0.867-0.513-2.767-1.003-5.7-1.47-2.933-0.467-5.017-1.15-6.25-2.05-1.233-0.9-1.85-2.567-1.85-5 0-2.433 0.857-4.233 2.57-5.4 1.72-1.167 3.863-1.75 6.43-1.75v0c2.033 0 4.583 0.233 7.65 0.7v0l1.4 0.25-0.1 3.2c-3.7-0.533-6.617-0.8-8.75-0.8zM204.85-3.1v0l1.45-0.15 0.1 2.95c-3.8 0.533-7.05 0.8-9.75 0.8v0c-3.6 0-6.15-1.043-7.65-3.13-1.5-2.08-2.25-5.32-2.25-9.72v0c0-8.767 3.483-13.15 10.45-13.15v0c3.367 0 5.883 0.94 7.55 2.82 1.667 1.887 2.5 4.847 2.5 8.88v0l-0.2 2.85h-16.5c0 2.767 0.5 4.817 1.5 6.15 1 1.333 2.743 2 5.23 2 2.48 0 5.003-0.1 7.57-0.3zM190.5-13.95h13c0-3.067-0.49-5.233-1.47-6.5-0.987-1.267-2.59-1.9-4.81-1.9-2.213 0-3.88 0.667-5 2-1.113 1.333-1.687 3.467-1.72 6.4z" fill="#ffffff" fill-rule="nonzero" stroke="none" stroke-width="1" stroke-linecap="butt" stroke-linejoin="miter" stroke-miterlimit="10" stroke-dasharray="" stroke-dashoffset="0" font-family="none" font-weight="none" font-size="none" text-anchor="none" style="mix-blend-mode: normal" data-fill-palette-color="primary" opacity="1"></path><path transform="translate(0,50)" d="M16.9-11.65v0h-8.8v11.65h-3.85v-34.6h12.65c3.767 0 6.55 0.917 8.35 2.75 1.8 1.833 2.7 4.633 2.7 8.4v0c0 7.867-3.683 11.8-11.05 11.8zM8.1-31.2v16.15h8.75c4.767 0 7.15-2.8 7.15-8.4v0c0-2.667-0.567-4.627-1.7-5.88-1.133-1.247-2.95-1.87-5.45-1.87v0zM37 0h-3.75v-25h3.7v3.4c2.9-2 5.95-3.317 9.15-3.95v0 3.8c-1.4 0.267-2.857 0.683-4.37 1.25-1.52 0.567-2.68 1.067-3.48 1.5v0l-1.25 0.65zM54.3 0h-3.75v-25h3.75zM54.3-30.65h-3.75v-4.35h3.75zM70.85-25.5v0c1.1 0 2.967 0.2 5.6 0.6v0l1.2 0.15-0.15 3.05c-2.667-0.3-4.633-0.45-5.9-0.45v0c-2.833 0-4.757 0.673-5.77 2.02-1.02 1.353-1.53 3.853-1.53 7.5 0 3.653 0.477 6.197 1.43 7.63 0.947 1.433 2.92 2.15 5.92 2.15v0l5.9-0.45 0.15 3.1c-3.1 0.467-5.417 0.7-6.95 0.7v0c-3.9 0-6.59-1-8.07-3-1.487-2-2.23-5.377-2.23-10.13 0-4.747 0.8-8.08 2.4-10 1.6-1.913 4.267-2.87 8-2.87zM100-3.1v0l1.45-0.15 0.1 2.95c-3.8 0.533-7.05 0.8-9.75 0.8v0c-3.6 0-6.15-1.043-7.65-3.13-1.5-2.08-2.25-5.32-2.25-9.72v0c0-8.767 3.483-13.15 10.45-13.15v0c3.367 0 5.883 0.94 7.55 2.82 1.667 1.887 2.5 4.847 2.5 8.88v0l-0.2 2.85h-16.5c0 2.767 0.5 4.817 1.5 6.15 1 1.333 2.743 2 5.23 2 2.48 0 5.003-0.1 7.57-0.3zM85.65-13.95h13c0-3.067-0.49-5.233-1.47-6.5-0.987-1.267-2.587-1.9-4.8-1.9-2.22 0-3.887 0.667-5 2-1.12 1.333-1.697 3.467-1.73 6.4z" fill="#ffffff" fill-rule="nonzero" stroke="none" stroke-width="1" stroke-linecap="butt" stroke-linejoin="miter" stroke-miterlimit="10" stroke-dasharray="" stroke-dashoffset="0" font-family="none" font-weight="none" font-size="none" text-anchor="none" style="mix-blend-mode: normal" data-fill-palette-color="primary" opacity="1"></path><path transform="translate(0,100)" d="M11.3-31.15h-10.65v-3.45h25v3.45h-10.55v31.15h-3.8zM29.35 0h-3.75v-25h3.7v3.4c2.9-2 5.95-3.317 9.15-3.95v0 3.8c-1.4 0.267-2.857 0.683-4.37 1.25-1.52 0.567-2.68 1.067-3.48 1.5v0l-1.25 0.65zM60.55-17.45v0 12.8c0.1 1.233 1.067 1.967 2.9 2.2v0l-0.15 2.95c-2.633 0-4.617-0.667-5.95-2v0c-3 1.333-6 2-9 2v0c-2.3 0-4.05-0.65-5.25-1.95-1.2-1.3-1.8-3.167-1.8-5.6 0-2.433 0.617-4.227 1.85-5.38 1.233-1.147 3.167-1.853 5.8-2.12v0l7.85-0.75v-2.15c0-1.7-0.367-2.917-1.1-3.65-0.733-0.733-1.733-1.1-3-1.1v0c-2.667 0-5.433 0.167-8.3 0.5v0l-1.55 0.15-0.15-2.85c3.667-0.733 6.917-1.1 9.75-1.1 2.833 0 4.893 0.65 6.18 1.95 1.28 1.3 1.92 3.333 1.92 6.1zM45.15-7.25v0c0 3.067 1.267 4.6 3.8 4.6v0c2.267 0 4.5-0.383 6.7-1.15v0l1.15-0.4v-8.25l-7.4 0.7c-1.5 0.133-2.583 0.567-3.25 1.3-0.667 0.733-1 1.8-1 3.2zM77.3-25.5v0c1.1 0 2.967 0.2 5.6 0.6v0l1.2 0.15-0.15 3.05c-2.667-0.3-4.633-0.45-5.9-0.45v0c-2.833 0-4.76 0.673-5.78 2.02-1.013 1.353-1.52 3.853-1.52 7.5 0 3.653 0.473 6.197 1.42 7.63 0.953 1.433 2.93 2.15 5.93 2.15v0l5.9-0.45 0.15 3.1c-3.1 0.467-5.417 0.7-6.95 0.7v0c-3.9 0-6.59-1-8.07-3-1.487-2-2.23-5.377-2.23-10.13 0-4.747 0.8-8.08 2.4-10 1.6-1.913 4.267-2.87 8-2.87zM93.5-11.45v11.45h-3.75v-35.9h3.75v21.2l3.9-0.2 7.15-10.1h4.25l-8.15 11.5 8.5 13.5h-4.25l-7.45-11.6zM130.05-3.1v0l1.45-0.15 0.1 2.95c-3.8 0.533-7.05 0.8-9.75 0.8v0c-3.6 0-6.15-1.043-7.65-3.13-1.5-2.08-2.25-5.32-2.25-9.72v0c0-8.767 3.483-13.15 10.45-13.15v0c3.367 0 5.883 0.94 7.55 2.82 1.667 1.887 2.5 4.847 2.5 8.88v0l-0.2 2.85h-16.5c0 2.767 0.5 4.817 1.5 6.15 1 1.333 2.74 2 5.22 2 2.487 0 5.013-0.1 7.58-0.3zM115.7-13.95h13c0-3.067-0.493-5.233-1.48-6.5-0.98-1.267-2.58-1.9-4.8-1.9-2.213 0-3.88 0.667-5 2-1.113 1.333-1.687 3.467-1.72 6.4zM142.05 0h-3.75v-25h3.7v3.4c2.9-2 5.95-3.317 9.15-3.95v0 3.8c-1.4 0.267-2.86 0.683-4.38 1.25-1.513 0.567-2.67 1.067-3.47 1.5v0l-1.25 0.65z" fill="#ffffff" fill-rule="nonzero" stroke="none" stroke-width="1" stroke-linecap="butt" stroke-linejoin="miter" stroke-miterlimit="10" stroke-dasharray="" stroke-dashoffset="0" font-family="none" font-weight="none" font-size="none" text-anchor="none" style="mix-blend-mode: normal" data-fill-palette-color="primary" opacity="1"></path></g></svg></g></svg></g></svg></g></svg></g><g transform="matrix(1,0,0,1,0,0.5959847359120332)"><svg viewBox="0 0 93.88455768 110.60423052817592" height="110.60423052817592" width="93.88455768"><g><svg xmlns="http://www.w3.org/2000/svg" xmlns:xlink="http://www.w3.org/1999/xlink" version="1.1" x="0" y="0" viewBox="11.802999999999997 5 76.39500000000001 90" enable-background="new 0 0 100 100" xml:space="preserve" height="110.60423052817592" width="93.88455768" class="icon-icon-0" data-fill-palette-color="accent" id="icon-0"><path fill-rule="evenodd" clip-rule="evenodd" d="M18.891 5h62.218c1.954 0 3.728 0.797 5.01 2.079 1.282 1.282 2.079 3.056 2.079 5.01v62.218c0 1.94-0.787 3.661-2.052 4.929l-0.012 0.012c-1.255 1.253-2.996 2.047-4.903 2.135l-28.819-0.047L37.355 92.27 33.029 95l0.007-5.117 0.013-8.489H18.891c-1.953 0-3.728-0.797-5.009-2.079-1.282-1.282-2.079-3.056-2.079-5.009V12.088c0-1.954 0.797-3.728 2.079-5.01S16.938 5 18.891 5L18.891 5zM47.543 46.015c-0.363-1.146-0.847-2.072-1.462-2.782-0.614-0.7-1.299-1.251-2.06-1.641-0.769-0.39-1.583-0.667-2.448-0.825-0.869-0.149-1.736-0.259-2.607-0.313-0.864-0.055-1.709-0.098-2.543-0.131-0.824-0.035-1.587-0.121-2.278-0.263-0.693-0.141-1.289-0.384-1.79-0.73-0.498-0.34-0.849-0.842-1.059-1.511-0.136-0.429-0.177-0.839-0.137-1.243 0.049-0.406 0.191-0.787 0.438-1.143 0.248-0.357 0.607-0.687 1.091-0.999 0.48-0.304 1.088-0.575 1.823-0.807 0.812-0.257 1.584-0.398 2.309-0.426 0.734-0.032 1.394-0.015 1.982 0.03 0.583 0.047 1.083 0.112 1.496 0.182 0.413 0.068 0.712 0.078 0.894 0.022 0.1-0.032 0.175-0.078 0.23-0.154 0.057-0.072 0.09-0.195 0.095-0.355 0.01-0.172-0.011-0.396-0.08-0.686-0.067-0.291-0.175-0.657-0.315-1.099-0.1-0.319-0.199-0.608-0.292-0.851-0.092-0.244-0.181-0.446-0.273-0.617-0.093-0.162-0.19-0.299-0.292-0.394-0.098-0.105-0.229-0.192-0.391-0.275-0.157-0.089-0.418-0.157-0.775-0.204-0.361-0.054-0.755-0.088-1.177-0.108-0.426-0.009-0.872-0.004-1.346 0.035-0.466 0.042-0.913 0.095-1.33 0.164l-0.845-4.166c-0.05-0.16-0.114-0.292-0.199-0.409-0.081-0.109-0.212-0.189-0.394-0.212-0.177-0.03-0.423-0.017-0.726 0.031-0.297 0.045-0.675 0.141-1.111 0.278-0.363 0.116-0.657 0.222-0.872 0.324-0.224 0.102-0.384 0.199-0.502 0.309-0.11 0.107-0.18 0.209-0.21 0.298-0.025 0.097-0.024 0.199-0.002 0.321l0.924 4.422c-1.19 0.535-2.209 1.151-3.061 1.868-0.844 0.713-1.501 1.497-1.962 2.361-0.463 0.864-0.739 1.79-0.817 2.781-0.08 0.984 0.05 2.005 0.387 3.073 0.371 1.178 0.866 2.132 1.474 2.851 0.61 0.717 1.292 1.285 2.057 1.682 0.765 0.398 1.579 0.675 2.431 0.846 0.861 0.169 1.718 0.281 2.575 0.337 0.858 0.057 1.693 0.097 2.51 0.136 0.811 0.034 1.564 0.122 2.251 0.272 0.687 0.15 1.267 0.391 1.755 0.723 0.487 0.326 0.837 0.831 1.053 1.514 0.322 1.025 0.179 1.981-0.434 2.852-0.61 0.872-1.74 1.571-3.402 2.096-1.063 0.336-2.018 0.516-2.869 0.555-0.852 0.037-1.602 0.01-2.234-0.07-0.633-0.08-1.158-0.177-1.58-0.276-0.424-0.098-0.727-0.122-0.909-0.065-0.137 0.043-0.251 0.112-0.34 0.212-0.088 0.098-0.139 0.242-0.157 0.439-0.014 0.189 0.015 0.451 0.083 0.774 0.072 0.321 0.182 0.725 0.333 1.204 0.2 0.632 0.386 1.093 0.558 1.391 0.167 0.299 0.36 0.499 0.577 0.608 0.212 0.117 0.503 0.2 0.877 0.274 0.373 0.065 0.802 0.116 1.297 0.134 0.486 0.024 1.021 0.022 1.608-0.02 0.578-0.038 1.187-0.11 1.824-0.215l0.918 4.478c0.018 0.162 0.08 0.302 0.165 0.42 0.089 0.108 0.224 0.177 0.408 0.206 0.179 0.033 0.414 0.021 0.703-0.022 0.291-0.044 0.66-0.136 1.111-0.278 0.356-0.112 0.64-0.219 0.862-0.329 0.222-0.109 0.386-0.218 0.51-0.311 0.11-0.101 0.183-0.202 0.207-0.306 0.022-0.104 0.022-0.207 0-0.328l-0.993-4.712c1.322-0.545 2.48-1.204 3.473-1.981 0.984-0.782 1.763-1.653 2.337-2.616 0.566-0.962 0.92-1.998 1.046-3.116C48.057 48.41 47.931 47.244 47.543 46.015L47.543 46.015zM69.685 61.615c0.329-0.82 0.485-1.572 0.465-2.262-0.02-0.685-0.154-1.316-0.404-1.893-0.257-0.58-0.59-1.116-1.007-1.611-0.424-0.49-0.866-0.956-1.335-1.392-0.466-0.433-0.926-0.852-1.384-1.26-0.453-0.404-0.847-0.809-1.173-1.211-0.328-0.403-0.553-0.819-0.677-1.248-0.126-0.424-0.09-0.874 0.102-1.352 0.122-0.308 0.291-0.56 0.501-0.77 0.218-0.209 0.475-0.36 0.782-0.446 0.307-0.088 0.665-0.108 1.086-0.06 0.414 0.052 0.886 0.18 1.412 0.391 0.579 0.234 1.084 0.513 1.508 0.836 0.433 0.322 0.801 0.64 1.115 0.939 0.308 0.299 0.563 0.569 0.763 0.802 0.204 0.23 0.37 0.376 0.498 0.428 0.074 0.03 0.137 0.037 0.204 0.02 0.067-0.014 0.142-0.068 0.219-0.159 0.087-0.092 0.179-0.23 0.276-0.426 0.097-0.196 0.206-0.454 0.332-0.77 0.09-0.229 0.17-0.439 0.229-0.62 0.062-0.182 0.107-0.339 0.132-0.477 0.024-0.136 0.032-0.259 0.019-0.361-0.007-0.107-0.04-0.215-0.094-0.339-0.048-0.122-0.166-0.284-0.346-0.476-0.18-0.199-0.388-0.403-0.618-0.61-0.237-0.203-0.493-0.409-0.782-0.608-0.284-0.194-0.564-0.371-0.832-0.526l1.462-2.762c0.045-0.115 0.07-0.219 0.077-0.326 0.003-0.1-0.034-0.205-0.126-0.304-0.087-0.1-0.232-0.205-0.426-0.321-0.19-0.112-0.449-0.234-0.762-0.359-0.259-0.104-0.476-0.179-0.645-0.222-0.175-0.047-0.312-0.065-0.431-0.058-0.112 0.01-0.199 0.035-0.257 0.071-0.06 0.044-0.107 0.102-0.151 0.181l-1.536 2.944c-0.925-0.251-1.791-0.374-2.61-0.364-0.812 0.012-1.551 0.15-2.216 0.426s-1.253 0.675-1.76 1.201c-0.505 0.522-0.905 1.163-1.213 1.927-0.337 0.842-0.501 1.614-0.489 2.307 0.011 0.692 0.135 1.332 0.384 1.913 0.249 0.583 0.583 1.121 0.987 1.614 0.409 0.498 0.845 0.961 1.307 1.392 0.459 0.433 0.917 0.844 1.363 1.247 0.444 0.396 0.832 0.799 1.153 1.205 0.321 0.404 0.536 0.811 0.66 1.228 0.124 0.413 0.087 0.862-0.108 1.35-0.294 0.733-0.821 1.21-1.576 1.42-0.754 0.21-1.721 0.082-2.911-0.396-0.759-0.304-1.387-0.647-1.888-1.021-0.502-0.375-0.916-0.742-1.238-1.081-0.321-0.341-0.575-0.64-0.769-0.894-0.195-0.252-0.355-0.408-0.486-0.46-0.098-0.04-0.195-0.053-0.292-0.038-0.097 0.015-0.192 0.074-0.294 0.177-0.095 0.1-0.202 0.263-0.313 0.477-0.11 0.216-0.235 0.498-0.373 0.841-0.18 0.453-0.289 0.801-0.331 1.049-0.044 0.248-0.028 0.453 0.045 0.615 0.065 0.166 0.192 0.348 0.369 0.565 0.182 0.211 0.403 0.44 0.675 0.68 0.266 0.239 0.57 0.488 0.923 0.737 0.348 0.249 0.727 0.492 1.138 0.729l-1.566 2.973c-0.065 0.102-0.095 0.209-0.102 0.316 0.002 0.102 0.045 0.204 0.137 0.307 0.085 0.102 0.225 0.206 0.409 0.316 0.186 0.11 0.44 0.23 0.762 0.36 0.254 0.101 0.466 0.173 0.641 0.213 0.179 0.042 0.322 0.057 0.436 0.062 0.109-0.006 0.197-0.03 0.259-0.078 0.062-0.047 0.11-0.107 0.153-0.186l1.631-3.14c1.006 0.306 1.972 0.47 2.897 0.491 0.924 0.015 1.773-0.117 2.547-0.396 0.772-0.284 1.455-0.709 2.049-1.285C68.861 63.216 69.332 62.493 69.685 61.615L69.685 61.615zM62.227 32.932c0.03-0.692-0.048-1.287-0.242-1.79-0.192-0.5-0.453-0.931-0.789-1.292-0.338-0.361-0.723-0.672-1.158-0.927-0.442-0.252-0.886-0.482-1.345-0.682-0.456-0.199-0.904-0.389-1.347-0.571-0.44-0.181-0.834-0.378-1.178-0.59-0.346-0.214-0.62-0.461-0.822-0.747-0.202-0.281-0.292-0.62-0.276-1.023 0.012-0.259 0.07-0.488 0.172-0.699 0.106-0.209 0.258-0.387 0.462-0.531 0.203-0.144 0.461-0.251 0.785-0.324 0.317-0.07 0.7-0.097 1.143-0.077 0.487 0.022 0.932 0.097 1.328 0.224 0.403 0.127 0.756 0.266 1.065 0.406 0.306 0.14 0.563 0.274 0.772 0.393 0.209 0.119 0.369 0.184 0.477 0.189 0.06 0.001 0.11-0.009 0.156-0.039 0.045-0.028 0.087-0.088 0.12-0.173 0.04-0.091 0.072-0.216 0.092-0.386 0.022-0.169 0.035-0.388 0.047-0.655 0.008-0.192 0.012-0.368 0.008-0.516-0.001-0.149-0.008-0.276-0.025-0.386-0.018-0.107-0.045-0.199-0.08-0.271-0.034-0.077-0.087-0.149-0.157-0.226-0.067-0.078-0.195-0.167-0.379-0.262-0.182-0.1-0.39-0.197-0.613-0.291-0.228-0.089-0.47-0.174-0.734-0.246-0.259-0.068-0.511-0.129-0.75-0.174l0.364-2.415c0.004-0.097-0.005-0.18-0.027-0.261-0.024-0.075-0.078-0.144-0.172-0.19-0.09-0.052-0.224-0.094-0.398-0.127-0.169-0.033-0.391-0.057-0.653-0.068-0.219-0.01-0.399-0.008-0.535 0.004-0.142 0.01-0.248 0.032-0.332 0.068-0.08 0.035-0.139 0.077-0.17 0.118-0.034 0.047-0.054 0.104-0.065 0.174L56.6 21.136c-0.747 0.055-1.419 0.187-2.02 0.406-0.597 0.219-1.105 0.513-1.524 0.889-0.42 0.376-0.75 0.822-0.988 1.34-0.237 0.515-0.367 1.093-0.396 1.735-0.03 0.709 0.048 1.322 0.235 1.83 0.189 0.506 0.444 0.947 0.779 1.312 0.334 0.366 0.72 0.677 1.147 0.936 0.431 0.261 0.872 0.49 1.323 0.689 0.451 0.2 0.894 0.386 1.328 0.568 0.43 0.176 0.821 0.373 1.161 0.588 0.341 0.217 0.607 0.461 0.804 0.737 0.199 0.271 0.289 0.613 0.271 1.024-0.027 0.617-0.292 1.103-0.795 1.454-0.502 0.351-1.249 0.506-2.249 0.461-0.638-0.027-1.191-0.117-1.658-0.266-0.466-0.147-0.867-0.309-1.193-0.476-0.324-0.167-0.589-0.324-0.799-0.461-0.209-0.136-0.367-0.209-0.476-0.212-0.084-0.005-0.159 0.01-0.226 0.047-0.067 0.037-0.124 0.104-0.172 0.207-0.044 0.098-0.08 0.246-0.106 0.433-0.025 0.189-0.045 0.428-0.058 0.715-0.017 0.381-0.006 0.667 0.028 0.861 0.03 0.196 0.095 0.341 0.191 0.443 0.091 0.104 0.232 0.207 0.419 0.319 0.189 0.11 0.411 0.22 0.673 0.329 0.259 0.107 0.546 0.212 0.872 0.304 0.319 0.094 0.662 0.174 1.027 0.242l-0.386 2.598c-0.022 0.092-0.017 0.179 0.006 0.259 0.027 0.077 0.085 0.14 0.179 0.192 0.09 0.052 0.22 0.094 0.384 0.127 0.166 0.033 0.383 0.055 0.655 0.068 0.214 0.008 0.388 0.006 0.53-0.008 0.14-0.015 0.251-0.042 0.336-0.068 0.08-0.032 0.139-0.072 0.172-0.124 0.032-0.052 0.053-0.107 0.063-0.177l0.393-2.739c0.82-0.033 1.576-0.162 2.264-0.386 0.686-0.229 1.277-0.545 1.777-0.951 0.495-0.408 0.889-0.899 1.178-1.477C62.035 34.324 62.195 33.669 62.227 32.932z" fill="#002f81" data-fill-palette-color="accent"></path></svg></g></svg></g></svg></g></svg></g></svg></g><defs></defs></svg><rect width="395.52" height="247.2" fill="none" stroke="none" visibility="hidden"></rect></g></svg></g></svg>